<?xml version="1.0" encoding="utf-8"?>
<!-- Generator: Adobe Illustrator 24.1.2, SVG Export Plug-In . SVG Version: 6.00 Build 0)  -->
<svg version="1.1" id="Layer_1" xmlns="http://www.w3.org/2000/svg" xmlns:xlink="http://www.w3.org/1999/xlink" x="0px" y="0px"
	 viewBox="0 0 1440 733" style="enable-background:new 0 0 1440 733;" xml:space="preserve">
<style type="text/css">
	.st0{fill-rule:evenodd;clip-rule:evenodd;fill:#13172B;}
	.st1{fill:#13172B;}
	.st2{fill:url(#SVGID_1_);}
</style>
<desc>Created with Sketch.</desc>
<g id="Marshmello_landing-page">
	<g id="Marshmello_landngpage-Copy-2">
		<path id="_x32_" class="st0" d="M0,0h1440v642.4c-126,60.4-252.3,90.6-379,90.6c-190,0-494.3-172-682-188
			c-125.1-10.7-251.4,21.8-379,97.4V0z"/>
	</g>
</g>
<g>
	<g>
		<path class="st1" d="M1361.9,86.8v573c-27.3,11.3-54.6,21-81.9,29.3c-74.3,22.4-148.6,33.6-223.1,33.6
			c-107,0-253-58.5-390.3-108.1c-26.1-9.4-51.9-18.6-77.1-26.9V86.8H1361.9z"/>
		
			<image style="overflow:visible;enable-background:new    ;" width="630" height="513" xlink:href="47FD469C.png"  transform="matrix(0.9803 0 0 0.9803 806.4698 206.339)">
		</image>
		
			<image style="overflow:visible;" width="1076" height="1099" xlink:href="../../../../Downloads/Screenshot_20211027-201342_Instagram-removebg.png"  transform="matrix(0.44 0 0 0.4556 738.9598 141.199)">
		</image>
	</g>
	
		<linearGradient id="SVGID_1_" gradientUnits="userSpaceOnUse" x1="720" y1="518.1916" x2="720" y2="117.5573" gradientTransform="matrix(1 0 0 -1 0 734)">
		<stop  offset="0" style="stop-color:#181818;stop-opacity:0"/>
		<stop  offset="0.2612" style="stop-color:#1A1B1D;stop-opacity:0.1875"/>
		<stop  offset="0.5652" style="stop-color:#20232B;stop-opacity:0.4057"/>
		<stop  offset="0.691" style="stop-color:#242733;stop-opacity:0.496"/>
		<stop  offset="0.8914" style="stop-color:#15192C;stop-opacity:0.9525"/>
		<stop  offset="1" style="stop-color:#13172B"/>
	</linearGradient>
	<path class="st2" d="M1440,86.8V632c-17.4,8.3-34.8,16.1-52.2,23.3c-29.2,12.1-58.5,22.5-87.7,31.3c-0.8,0.2-1.6,0.5-2.4,0.7
		c-3.4,0.6-6.9,1.1-10.3,1.7c-92.7,15-185.4,25-278.3,29.9c-107.5-14.2-240.3-66.6-366.3-112.2c-28-10.1-55.6-19.9-82.6-28.8
		C494,556,431.9,539.1,379,534.6c-105-9-210.8,12.4-317.4,64.2C40.9,595,20.3,591.2,0,587.6V86.8H1440z"/>
</g>
</svg>
