<?xml version="1.0" standalone="no"?>
<!DOCTYPE svg PUBLIC "-//W3C//DTD SVG 20010904//EN"
 "http://www.w3.org/TR/2001/REC-SVG-20010904/DTD/svg10.dtd">
<svg version="1.0" xmlns="http://www.w3.org/2000/svg"
 width="1350.000000pt" height="650.000000pt" viewBox="0 0 1350.000000 650.000000"
 preserveAspectRatio="xMidYMid meet">

<g transform="translate(0.000000,650.000000) scale(0.100000,-0.100000)"
fill="#000000" stroke="none">
<path d="M6865 4656 c-71 -23 -119 -53 -171 -108 -51 -54 -90 -115 -80 -125 3
-3 18 -1 33 5 130 51 328 61 453 23 73 -22 180 -75 180 -89 0 -24 -223 -142
-319 -168 l-59 -17 -59 50 c-75 63 -101 79 -178 108 -89 34 -198 45 -313 34
-53 -6 -99 -12 -104 -15 -11 -7 69 -79 140 -127 113 -74 256 -112 399 -104
107 6 112 3 162 -103 46 -98 65 -195 58 -309 -6 -110 -21 -156 -85 -256 -64
-101 -318 -343 -338 -322 -9 9 103 440 136 526 16 42 57 125 91 186 34 60 63
124 66 142 5 29 2 34 -23 44 -108 41 -483 -92 -617 -220 -116 -109 -218 -327
-258 -550 -31 -170 -19 -511 17 -511 19 0 275 131 399 204 60 36 111 64 112
62 2 -1 -7 -49 -20 -106 l-22 -103 -91 -23 c-148 -36 -250 -99 -376 -232 -64
-69 -189 -239 -201 -275 -3 -9 -9 -8 -23 2 -18 14 -18 14 -2 -4 16 -17 15 -22
-18 -86 -72 -144 -138 -340 -174 -523 -30 -150 -37 -141 83 -100 296 101 571
286 648 436 48 95 117 353 155 584 14 87 28 162 30 166 7 11 76 10 93 -1 7 -5
17 -38 21 -77 4 -38 15 -88 23 -111 31 -83 130 -214 184 -242 51 -26 68 9 61
127 -5 91 -36 168 -93 230 l-37 41 69 -19 c38 -10 111 -26 164 -35 187 -32
218 -10 128 89 -53 58 -103 90 -173 111 l-38 11 85 23 c159 42 328 161 427
303 56 80 96 176 136 328 38 143 40 341 6 470 -30 113 -91 234 -151 301 l-48
54 43 41 c54 50 56 75 8 120 -43 42 -199 119 -279 139 -71 18 -205 19 -260 1z
m281 -47 c114 -35 254 -115 254 -144 0 -17 -60 -75 -78 -75 -8 0 -26 8 -40 19
-49 34 -126 68 -193 85 -80 20 -261 21 -341 2 -52 -12 -56 -12 -48 3 11 20 57
63 92 86 78 49 238 60 354 24z m-591 -284 c48 -8 107 -28 150 -50 76 -38 143
-90 131 -102 -15 -16 -146 -15 -219 1 -89 20 -200 71 -252 117 l-38 34 34 6
c57 11 110 9 194 -6z m819 -47 c140 -160 200 -444 146 -691 -48 -218 -100
-326 -214 -444 -117 -123 -196 -168 -401 -228 -83 -25 -216 -85 -258 -117 -28
-21 -137 -2 -137 24 0 17 35 183 46 220 3 10 47 50 99 89 117 88 268 245 318
330 55 93 71 156 71 279 1 140 -28 250 -92 354 -13 21 -20 42 -15 46 4 4 37
17 73 30 75 26 171 74 250 124 30 19 58 35 62 35 3 1 27 -22 52 -51z m-534
-290 c0 -7 -27 -60 -60 -118 -84 -146 -113 -228 -187 -520 -52 -209 -68 -259
-88 -276 -56 -51 -477 -285 -490 -273 -2 3 -9 52 -15 111 -35 352 107 765 314
913 102 73 242 130 396 163 67 15 130 14 130 0z m146 -1183 c52 -26 132 -100
121 -111 -17 -17 -278 35 -382 76 l-30 12 50 24 c71 34 172 33 241 -1z m-536
-59 c0 -7 -9 -73 -20 -147 -25 -164 -92 -429 -132 -527 -29 -69 -32 -73 -57
-68 l-26 6 24 -13 24 -14 -64 -65 c-111 -112 -305 -228 -498 -298 -46 -16 -86
-30 -88 -30 -19 0 47 268 100 405 57 148 100 236 114 231 7 -3 10 1 6 10 -7
19 61 129 143 233 116 144 241 233 384 272 80 22 90 23 90 5z m301 -88 c61
-60 82 -110 87 -210 3 -54 1 -88 -5 -88 -6 0 -33 25 -62 55 -68 72 -114 169
-119 254 l-4 64 33 -19 c18 -11 50 -36 70 -56z"/>
<path d="M5252 3530 c0 -14 2 -19 5 -12 2 6 2 18 0 25 -3 6 -5 1 -5 -13z"/>
<path d="M8242 3530 c0 -14 2 -19 5 -12 2 6 2 18 0 25 -3 6 -5 1 -5 -13z"/>
<path d="M5252 3290 c0 -14 2 -19 5 -12 2 6 2 18 0 25 -3 6 -5 1 -5 -13z"/>
<path d="M8242 3290 c0 -14 2 -19 5 -12 2 6 2 18 0 25 -3 6 -5 1 -5 -13z"/>
<path d="M6708 1913 c29 -2 74 -2 100 0 26 2 2 3 -53 3 -55 0 -76 -1 -47 -3z"/>
</g>
</svg>
