<?xml version="1.0" encoding="iso-8859-1"?>
<!-- Generator: Adobe Illustrator 17.1.0, SVG Export Plug-In . SVG Version: 6.00 Build 0)  -->
<!DOCTYPE svg PUBLIC "-//W3C//DTD SVG 1.1//EN" "http://www.w3.org/Graphics/SVG/1.1/DTD/svg11.dtd">
<svg width="50px" height="50px"  version="1.1" id="Capa_1" xmlns="http://www.w3.org/2000/svg" xmlns:xlink="http://www.w3.org/1999/xlink" x="0px" y="0px"
	 viewBox="0 0 394.414 394.414" style="enable-background:new 0 0 394.414 394.414;" xml:space="preserve">
<path d="M54.422,179.811v-75.176C54.422,46.939,101.361,0,159.058,0c57.697,0,104.637,46.939,104.637,104.635v75.176
	c0,25.974-21.131,47.104-47.105,47.104c-4.971,0-9-4.029-9-9s4.029-9,9-9c16.049,0,29.105-13.057,29.105-29.104v-75.176
	c0-47.771-38.865-86.635-86.636-86.635c-47.772,0-86.637,38.864-86.637,86.635v75.176c0,16.048,13.057,29.104,29.105,29.104
	c4.971,0,9,4.029,9,9s-4.029,9-9,9C75.553,226.915,54.422,205.784,54.422,179.811z M218.35,269.052
	c1.189,0.529,2.431,0.779,3.654,0.779c3.446,0,6.736-1.991,8.228-5.343c2.021-4.541-0.022-9.86-4.563-11.882
	c-18.386-8.183-30.422-17.583-34.808-27.186c-2.065-4.522-7.404-6.516-11.925-4.448c-4.521,2.064-6.513,7.404-4.448,11.925
	C180.814,246.75,195.571,258.914,218.35,269.052z M128.27,121.639c-3.79,1.998-7.709,4.064-11.508,6.2
	c-7.95,4.47-15.575,9.746-17.52,18.019c-1.705,7.25,1.714,13.534,4.882,18.198c7.238,10.657,26.89,35.451,53.004,35.494
	c8.065-0.015,16.051-2.578,25.892-8.314c23.503-13.698,38.104-39.741,38.104-67.968c0-11.783-1.896-22.655-5.634-32.316
	c-1.794-4.637-7.008-6.938-11.642-5.146c-4.636,1.794-6.939,7.006-5.146,11.642c2.934,7.581,4.421,16.269,4.421,25.82
	c0,21.847-11.176,41.931-29.167,52.417c-6.946,4.048-12.146,5.856-16.83,5.865c-14.292-0.023-29.059-14.276-38.113-27.608
	c-1.643-2.417-2.072-3.595-2.184-4.032c0.388-0.607,2.064-2.619,8.753-6.381c3.587-2.017,7.396-4.024,11.081-5.967
	c20.514-10.815,41.727-21.999,45.405-44.243c3.29-19.9-3.794-31.984-10.317-38.617c-10.506-10.684-27.479-15.19-46.566-12.36
	c-4.917,0.729-8.313,5.305-7.584,10.222c0.729,4.916,5.305,8.316,10.222,7.583c13.336-1.976,24.667,0.64,31.095,7.176
	c5.229,5.317,7.043,13.076,5.392,23.061C162.091,103.809,145.663,112.47,128.27,121.639z M184.846,367.457h-50.992l-68.626-85.958
	c25.28-6.606,67.8-21.451,80.2-48.601c2.065-4.521,0.074-9.861-4.447-11.926c-4.521-2.065-9.861-0.073-11.926,4.447
	c-9.314,20.395-49.679,35.216-81.458,41.724c-0.391,0.075-0.778,0.177-1.159,0.305c-1.79,0.6-3.291,1.727-4.36,3.168
	c0,0.001-0.001,0.002-0.001,0.002c-0.002,0.002-0.004,0.005-0.005,0.007c-0.242,0.326-0.459,0.666-0.652,1.017
	c-0.974,1.769-1.361,3.871-0.959,6.002c0.072,0.389,0.171,0.774,0.296,1.154c0.365,1.112,0.934,2.113,1.655,2.971l80.08,100.305
	c1.018,1.275,2.313,2.2,3.73,2.758c0.689,0.272,1.42,0.462,2.181,0.557c0.003,0,0.003,0.001,0.004,0.001
	c0.373,0.046,0.748,0.069,1.124,0.069c0.051,0,0.101,0,0.152-0.001h55.165c4.971,0,9-4.029,9-9S189.817,367.457,184.846,367.457z
	 M342.319,336.7c0,18.022-7.608,33.161-22.001,43.778c-12.183,8.986-28.412,13.936-45.699,13.936s-33.517-4.949-45.699-13.936
	c-14.393-10.617-22.001-25.756-22.001-43.778c0-18.155,7.596-33.411,21.967-44.118c9.962-7.423,22.631-12.119,36.375-13.588
	c-3.268-20.164,4.37-41.254,20.354-55.678c16.788-15.149,39.156-20.159,59.832-13.393c2.727,0.892,4.864,3.029,5.756,5.756
	c6.319,19.319,2.206,40.64-11.002,57.03c-3.119,3.87-8.785,4.479-12.655,1.361c-3.871-3.118-4.48-8.784-1.361-12.654
	c8.464-10.505,11.679-23.251,9.123-35.592c-13.157-2.696-26.934,1.199-37.634,10.854c-11.997,10.826-17.46,26.72-14.258,41.478
	c0.057,0.265,0.103,0.528,0.136,0.793c13.907,1.416,26.736,6.133,36.801,13.632C334.723,303.289,342.319,318.545,342.319,336.7z
	 M324.319,336.7c0-12.419-4.953-22.406-14.721-29.684c-8.971-6.685-21.721-10.518-34.979-10.518c-23.937,0-49.7,12.58-49.7,40.201
	c0,27.286,25.763,39.714,49.7,39.714S324.319,363.986,324.319,336.7z M273.788,346.049c-1.3-0.034-12.702-0.593-12.702-9.469
	c0-4.971-4.029-9-9-9c-4.971,0-9,4.029-9,9c0,15.448,12.711,26.998,30.225,27.463c0.082,0.002,0.162,0.003,0.243,0.003
	c4.859,0,8.863-3.874,8.992-8.761C282.678,350.315,278.756,346.181,273.788,346.049z"/>
<g>
</g>
<g>
</g>
<g>
</g>
<g>
</g>
<g>
</g>
<g>
</g>
<g>
</g>
<g>
</g>
<g>
</g>
<g>
</g>
<g>
</g>
<g>
</g>
<g>
</g>
<g>
</g>
<g>
</g>
</svg>
